<?xml version="1.0" encoding="UTF-8" standalone="no"?>
<svg
   xmlns:dc="http://purl.org/dc/elements/1.1/"
   xmlns:cc="http://creativecommons.org/ns#"
   xmlns:rdf="http://www.w3.org/1999/02/22-rdf-syntax-ns#"
   xmlns:svg="http://www.w3.org/2000/svg"
   xmlns="http://www.w3.org/2000/svg"
   xmlns:sodipodi="http://sodipodi.sourceforge.net/DTD/sodipodi-0.dtd"
   xmlns:inkscape="http://www.inkscape.org/namespaces/inkscape"
   width="4096"
   height="4096"
   viewBox="0 0 4096 4096"
   version="1.1"
   id="svg6"
   sodipodi:docname="deliveroo-logo.svg"
   inkscape:export-filename="G:\Users\suitedoalex\sites\deliveroo-logo-0.png"
   inkscape:export-xdpi="96"
   inkscape:export-ydpi="96"
   inkscape:version="0.92.2 (5c3e80d, 2017-08-06)">
  <metadata
     id="metadata12">
    <rdf:RDF>
      <cc:Work
         rdf:about="">
        <dc:format>image/svg+xml</dc:format>
        <dc:type
           rdf:resource="http://purl.org/dc/dcmitype/StillImage" />
        <dc:title>logo-white</dc:title>
      </cc:Work>
    </rdf:RDF>
  </metadata>
  <defs
     id="defs10" />
  <sodipodi:namedview
     pagecolor="#ffffff"
     bordercolor="#666666"
     borderopacity="1"
     objecttolerance="10"
     gridtolerance="10"
     guidetolerance="10"
     inkscape:pageopacity="0"
     inkscape:pageshadow="2"
     inkscape:window-width="1600"
     inkscape:window-height="837"
     id="namedview8"
     showgrid="false"
     inkscape:zoom="0.028284271"
     inkscape:cx="1283.8146"
     inkscape:cy="4062.7961"
     inkscape:window-x="-8"
     inkscape:window-y="-8"
     inkscape:window-maximized="1"
     inkscape:current-layer="svg6" />
  <title
     id="title2">logo-white</title>
  <path
     d="m 9029.6379,2572.2652 h 226.4005 l -37.4851,-174.1795 V 1359.8289 h -216.5657 v 473.6297 c -65.2346,-74.8376 -154.808,-118.7798 -260.6072,-118.7798 -216.665,0 -384.3875,177.3586 -384.3875,437.7672 0,260.4085 167.7225,437.7672 384.3543,437.7672 107.5543,0 200.3398,-45.532 265.5744,-123.681 l 22.7494,105.7993 z m 4281.7081,-624.8613 c 43.942,0 84.639,11.2589 122.091,37.3194 l 102.654,-229.4137 c -47.353,-29.3723 -102.654,-42.3197 -156.398,-42.3197 -97.686,0 -179.147,43.8097 -231.202,125.3033 l -22.848,-105.8656 h -223.189 l 35.863,164.3781 v 675.3604 h 216.499 v -535.3874 c 29.339,-55.3668 84.706,-89.4742 156.397,-89.4742 v 0 h 0.07 z m 635.06,416.5744 c -125.303,0 -218.221,-83.0171 -218.221,-211.5986 0,-130.2045 92.918,-211.5323 218.221,-211.5323 127.092,0 218.321,81.3278 218.321,211.4991 0,128.6147 -91.196,211.5987 -218.221,211.5987 h -0.06 z M 8567.0351,2152.3797 c 0,-130.2045 92.8186,-211.5323 218.2213,-211.5323 127.0916,0 218.2214,81.3278 218.2214,211.4991 0,128.6147 -91.1298,211.5987 -218.1551,211.5987 -125.4028,0 -218.2876,-82.984 -218.2876,-211.5987 z m 6338.6849,211.5986 c -125.37,0 -218.222,-83.0171 -218.222,-211.5986 0,-130.2045 92.852,-211.5323 218.222,-211.5323 127.025,0 218.221,81.3278 218.221,211.4991 0,128.6147 -91.196,211.5987 -218.221,211.5987 z M 9782.0876,1927.7674 c 112.3889,0 185.7034,52.055 208.4858,148.0858 H 9573.668 c 24.4381,-96.0308 97.6863,-148.0858 208.4196,-148.0858 z m 2591.1714,0 c 112.389,0 185.704,52.055 208.486,148.0858 h -416.905 c 24.438,-96.0308 97.686,-148.0858 208.419,-148.0858 z m -1056.999,644.4978 h 348.525 l 226.434,-839.7713 h -236.17 l -166.033,680.2943 -166.133,-680.2943 h -232.991 l 226.434,839.7713 z m -558.634,0 h 216.5 v -839.7713 h -216.5 z m -942.4244,15.5637 c 120.6343,0 239.4804,-32.5843 338.8224,-96.0308 l -83.017,-185.5046 c -78.215,40.6639 -164.5101,65.1022 -252.4609,65.1022 -113.9122,0 -193.717,-43.9422 -227.99,-125.3364 h 609.0659 c 6.524,-30.8954 9.835,-61.8239 9.835,-99.2759 0,-260.3754 -180.802,-434.5221 -423.462,-434.5221 -244.2489,0 -423.3958,175.7693 -423.3958,437.7672 0,266.8989 177.4911,437.7672 452.7679,437.7672 h -0.066 z m 5518.9134,-435.4492 c 0,-260.4086 -182.458,-437.7672 -428.329,-437.7672 -246.038,0 -428.396,177.3586 -428.396,437.7672 0,260.4085 182.392,437.7672 428.33,437.7672 245.937,0 428.329,-177.3587 428.329,-437.7672 z m -2931.583,437.7672 c 120.469,0 239.414,-32.5511 338.822,-96.0308 l -83.116,-185.6037 c -78.215,40.7302 -164.51,65.1019 -252.494,65.1019 -113.912,0 -193.717,-43.876 -227.957,-125.3033 h 609.133 c 6.523,-30.9285 9.735,-61.8239 9.735,-99.2427 0,-260.4086 -180.803,-434.5221 -423.462,-434.5221 -244.249,0 -423.396,175.7029 -423.396,437.7672 0,266.8988 177.558,437.7672 452.801,437.7672 v 0 z m 1543.941,0 c 245.937,0 428.263,-177.3587 428.263,-437.7672 0,-260.4086 -182.359,-437.7672 -428.33,-437.7672 -245.97,0 -428.329,177.3586 -428.329,437.7672 0,260.4085 182.392,437.7672 428.296,437.7672 h 0.07 z m -3599.295,-17.8817 h 216.566 V 1359.7626 h -216.566 v 1212.4697 z m 519.493,-955.4055 c 76.493,0 135.171,-58.6116 135.171,-136.7607 0,-78.083 -58.612,-136.6615 -135.105,-136.6615 -78.215,0 -136.86,58.6116 -136.86,136.6947 0,78.149 58.678,136.6944 136.86,136.6944 h -0.07 z M 7145.5499,595.49117 7021.571,1759.1838 6809.9725,778.08177 l -663.1413,139.079 211.3999,981.00263 -956.134,200.3729 168.8814,783.61 1681.4303,352.333 384.553,-851.4936 183.0543,-1717.52463 z M 6614.3018,2283.6435 c -34.7035,31.326 -80.5664,28.4783 -129.1447,12.484 -48.5782,-15.8945 -70.1355,-73.8442 -51.7903,-143.8141 13.7092,-51.9891 78.2484,-59.7708 110.5015,-60.2674 12.2522,-0.3311 24.3057,2.1855 35.432,7.1526 22.8486,10.1991 61.4596,31.922 69.3076,65.0691 11.2588,47.8165 0.3974,87.9839 -34.273,119.2767 h -0.066 v 0 z m 486.776,53.976 c -25.1667,43.1805 -91.3285,48.8762 -156.3644,17.4842 -43.843,-21.1931 -43.5118,-75.1028 -38.7434,-107.9519 2.5829,-17.9808 9.868,-34.8359 21.2592,-49.0747 15.6629,-19.5375 41.7899,-45.0351 72.023,-45.8631 49.1412,-1.3246 91.3946,20.4314 115.303,59.7379 23.9745,39.2068 11.9872,82.4536 -13.2456,125.6676 h -0.1654 z"
     id="path4"
     style="fill:#35b8b2;fill-opacity:1;fill-rule:evenodd;stroke-width:33.11401367"
     inkscape:connector-curvature="0"
     inkscape:export-filename="G:\Users\suitedoalex\sites\deliveroo-logo-6.png"
     inkscape:export-xdpi="6.7659969"
     inkscape:export-ydpi="6.7659969" />
  <path
     inkscape:connector-curvature="0"
     d="m 984.62017,3293.622 h 85.49603 l -14.1554,-65.7768 v -392.0798 h -81.78243 v 178.8589 c -24.6347,-28.2621 -58.46011,-44.8545 -98.41342,-44.8545 -81.81977,0 -145.15713,66.9749 -145.15713,165.3144 0,98.3373 63.33736,165.3143 145.14452,165.3143 40.61604,0 75.65473,-17.1935 100.28933,-46.7063 l 8.5909,39.9529 z M 2601.5296,3057.6523 c 16.5941,0 31.9627,4.2522 46.1058,14.0932 l 38.7651,-86.6339 c -17.8819,-11.0917 -38.7651,-15.9808 -59.0608,-15.9808 -36.8894,0 -67.6513,16.5441 -87.3093,47.318 l -8.6283,-39.9781 h -84.2832 l 13.5429,62.0754 v 255.038 h 81.7572 v -202.1795 c 11.0793,-20.9097 31.9875,-33.788 59.0608,-33.788 v 0 0 z m 239.8193,157.3124 c -47.3188,0 -82.4075,-31.3498 -82.4075,-79.9058 0,-49.1697 35.0887,-79.8805 82.4075,-79.8805 47.9939,0 82.4447,30.7108 82.4447,79.8679 0,48.5686 -34.4386,79.9058 -82.4073,79.9058 v 0 z M 809.92654,3135.0589 c 0,-49.1697 35.05106,-79.8805 82.40726,-79.8805 47.99387,0 82.40747,30.7108 82.40747,79.8679 0,48.5686 -34.4136,79.9058 -82.38246,79.9058 -47.35599,0 -82.43227,-31.3372 -82.43227,-79.9058 z m 2393.68966,79.9058 c -47.3438,0 -82.4075,-31.3498 -82.4075,-79.9058 0,-49.1697 35.0637,-79.8805 82.4075,-79.8805 47.9687,0 82.4072,30.7108 82.4072,79.8679 0,48.5686 -34.4385,79.9058 -82.4072,79.9058 z m -1934.847,-164.7258 c 42.4417,0 70.1275,19.657 78.7308,55.921 h -157.4366 c 9.2286,-36.264 36.8896,-55.921 78.7058,-55.921 z m 978.5087,0 c 42.4417,0 70.1275,19.657 78.7308,55.921 h -157.4366 c 9.2286,-36.264 36.8896,-55.921 78.7058,-55.921 z m -399.1563,243.3831 h 131.6138 l 85.5086,-317.1261 h -89.185 l -62.6999,256.9025 -62.7364,-256.9025 h -87.9847 l 85.5089,317.1261 z m -210.9577,0 h 81.7572 v -317.1261 h -81.7572 z m -355.8899,5.8769 c 45.5555,0 90.4357,-12.3045 127.9504,-36.2641 l -31.3499,-70.0542 c -29.5365,15.3565 -62.1245,24.586 -95.3375,24.586 -43.0168,0 -73.1536,-16.5945 -86.0963,-47.3306 h 230.0031 c 2.4634,-11.6676 3.714,-23.3479 3.714,-37.4916 0,-98.3247 -68.2772,-164.0889 -159.9129,-164.0889 -92.2363,0 -159.8878,66.3759 -159.8878,165.3164 0,100.7882 67.0261,165.3144 170.9798,165.3144 h -0.019 z m 2084.1182,-164.44 c 0,-98.3394 -68.9021,-165.3143 -161.751,-165.3143 -92.9117,0 -161.776,66.9749 -161.776,165.3143 0,98.3395 68.8769,165.3144 161.751,165.3144 92.8739,0 161.7508,-66.9749 161.7508,-165.3144 z m -1107.0598,165.3144 c 45.4927,0 90.4105,-12.2919 127.9499,-36.2641 l -31.3872,-70.0899 c -29.5365,15.3817 -62.1243,24.5838 -95.3497,24.5838 -43.017,0 -73.1538,-16.5672 -86.0839,-47.3179 h 230.0278 c 2.4635,-11.6803 3.6765,-23.3458 3.6765,-37.4769 0,-98.3394 -68.2769,-164.0889 -159.9127,-164.0889 -92.2362,0 -159.8881,66.3506 -159.8881,165.3143 0,100.7903 67.0516,165.3144 170.9924,165.3144 v 0 z m 583.0415,0 c 92.8739,0 161.726,-66.9749 161.726,-165.3144 0,-98.3394 -68.8645,-165.3143 -161.751,-165.3143 -92.8865,0 -161.7512,66.9749 -161.7512,165.3143 0,98.3395 68.8771,165.3144 161.7386,165.3144 v 0 z m -1359.2084,-6.7513 h 81.7822 v -457.8819 h -81.7822 v 457.8693 z m 196.1772,-360.793 c 28.8864,0 51.045,-22.133 51.045,-51.6458 0,-29.4854 -22.1338,-51.6079 -51.02,-51.6079 -29.5365,0 -51.683,22.1351 -51.683,51.6205 0,29.5128 22.1586,51.6205 51.683,51.6205 h -0.019 z"
     id="path4-7"
     style="fill:#35b8b2;fill-opacity:1;fill-rule:evenodd;stroke-width:12.50491142"
     sodipodi:nodetypes="ccccccsssccccccsccccccccccccsssccccssscccsssccsccssccscccccccccccccccccsccsssccccssscccccsccssscccssssccscccccccsssccc"
     inkscape:export-filename="G:\Users\suitedoalex\sites\deliveroo-logo-7.png"
     inkscape:export-xdpi="14.574248"
     inkscape:export-ydpi="14.574248" />
  <path
     inkscape:connector-curvature="0"
     d="m 2427.1062,795.6015 -87.9361,825.3841 -150.0827,-695.8777 -470.3541,98.6463 149.9423,695.8083 -678.1683,142.1199 119.7844,555.8009 1192.6075,249.9032 272.7565,-603.9491 129.837,-1218.208 z m -376.8044,1197.3739 c -24.6145,22.2192 -57.1444,20.1993 -91.5999,8.8553 -34.4556,-11.2746 -49.7459,-52.3772 -36.7339,-102.0051 9.7234,-36.8736 55.5,-42.3932 78.3765,-42.7463 8.6903,-0.2102 17.2397,1.5554 25.1311,5.0739 16.2063,7.2327 43.5926,22.6417 49.1588,46.1514 7.9857,33.9163 0.2817,62.4054 -24.3091,84.6015 h -0.042 v 0 z m 345.2612,38.284 c -17.8501,30.6268 -64.7778,34.6666 -110.9065,12.4012 -31.0969,-15.0307 -30.8621,-53.2684 -27.48,-76.568 1.8308,-12.7522 6.9991,-24.7078 15.0788,-34.8074 11.1094,-13.8578 29.641,-31.9426 51.0848,-32.529 34.8547,-0.9458 64.8245,14.4905 81.7822,42.3701 17.0047,27.8081 8.5021,58.4832 -9.3949,89.1331 h -0.1051 z"
     id="path4-7-8"
     style="fill:#35b8b2;fill-opacity:1;fill-rule:evenodd;stroke-width:23.48716164"
     sodipodi:nodetypes="cccccccccccccccccccccccccccccc"
     inkscape:export-filename="G:\Users\suitedoalex\sites\deliveroo-logo-7.png"
     inkscape:export-xdpi="14.574248"
     inkscape:export-ydpi="14.574248" />
</svg>
